NotoSansHebrew-Light.ufo
<glyph name="etnahtaleft-hb" format="2">
  <unicode hex="0591"/>
  <note>
uni0591
</note>
  <anchor x="114" y="0" name="_bottomleft"/>
  <outline>
    <contour>
      <point x="58" y="-202" type="line"/>
      <point x="83" y="-202" type="line"/>
      <point x="83" y="-185" type="line" smooth="yes"/>
      <point x="83" y="-158"/>
      <point x="92" y="-147"/>
      <point x="115" y="-147" type="curve" smooth="yes"/>
      <point x="137" y="-147"/>
      <point x="146" y="-158"/>
      <point x="146" y="-185" type="curve" smooth="yes"/>
      <point x="146" y="-202" type="line"/>
      <point x="171" y="-202" type="line"/>
      <point x="171" y="-185" type="line" smooth="yes"/>
      <point x="171" y="-147"/>
      <point x="157" y="-129"/>
      <point x="127" y="-124" type="curve"/>
      <point x="127" y="-82" type="line"/>
      <point x="101" y="-82" type="line"/>
      <point x="101" y="-124" type="line"/>
      <point x="72" y="-129"/>
      <point x="58" y="-147"/>
      <point x="58" y="-185" type="curve" smooth="yes"/>
    </contour>
  </outline>
</glyph>
<glyph name="segolta-hb" format="2">
  <unicode hex="0592"/>
  <note>
uni0592
</note>
  <anchor x="120" y="528" name="_topleft"/>
  <outline>
    <contour>
      <point x="120" y="744" type="curve" smooth="yes"/>
      <point x="132" y="744"/>
      <point x="142" y="754"/>
      <point x="142" y="767" type="curve" smooth="yes"/>
      <point x="142" y="779"/>
      <point x="132" y="789"/>
      <point x="120" y="789" type="curve" smooth="yes"/>
      <point x="107" y="789"/>
      <point x="97" y="779"/>
      <point x="97" y="767" type="curve" smooth="yes"/>
      <point x="97" y="754"/>
      <point x="107" y="744"/>
    </contour>
    <contour>
      <point x="73" y="655" type="curve" smooth="yes"/>
      <point x="85" y="655"/>
      <point x="95" y="665"/>
      <point x="95" y="678" type="curve" smooth="yes"/>
      <point x="95" y="690"/>
      <point x="85" y="700"/>
      <point x="73" y="700" type="curve" smooth="yes"/>
      <point x="60" y="700"/>
      <point x="50" y="690"/>
      <point x="50" y="678" type="curve" smooth="yes"/>
      <point x="50" y="665"/>
      <point x="60" y="655"/>
    </contour>
    <contour>
      <point x="168" y="655" type="curve" smooth="yes"/>
      <point x="180" y="655"/>
      <point x="190" y="665"/>
      <point x="190" y="678" type="curve" smooth="yes"/>
      <point x="190" y="690"/>
      <point x="180" y="700"/>
      <point x="168" y="700" type="curve" smooth="yes"/>
      <point x="155" y="700"/>
      <point x="145" y="690"/>
      <point x="145" y="678" type="curve" smooth="yes"/>
      <point x="145" y="665"/>
      <point x="155" y="655"/>
    </contour>
  </outline>
</glyph>
<glyph name="zaqefgadol-hb" format="2">
  <unicode hex="0595"/>
  <note>
uni0595
</note>
  <anchor x="102" y="528" name="_top"/>
  <outline>
    <contour>
      <point x="50" y="650" type="line"/>
      <point x="75" y="650" type="line"/>
      <point x="75" y="795" type="line"/>
      <point x="50" y="795" type="line"/>
    </contour>
    <contour>
      <point x="132" y="744" type="curve" smooth="yes"/>
      <point x="144" y="744"/>
      <point x="154" y="754"/>
      <point x="154" y="767" type="curve" smooth="yes"/>
      <point x="154" y="779"/>
      <point x="144" y="789"/>
      <point x="132" y="789" type="curve" smooth="yes"/>
      <point x="119" y="789"/>
      <point x="109" y="779"/>
      <point x="109" y="767" type="curve" smooth="yes"/>
      <point x="109" y="754"/>
      <point x="119" y="744"/>
    </contour>
    <contour>
      <point x="133" y="655" type="curve" smooth="yes"/>
      <point x="145" y="655"/>
      <point x="155" y="665"/>
      <point x="155" y="678" type="curve" smooth="yes"/>
      <point x="155" y="690"/>
      <point x="145" y="700"/>
      <point x="133" y="700" type="curve" smooth="yes"/>
      <point x="120" y="700"/>
      <point x="110" y="690"/>
      <point x="110" y="678" type="curve" smooth="yes"/>
      <point x="110" y="665"/>
      <point x="120" y="655"/>
    </contour>
  </outline>
</glyph>
<glyph name="reviamugrash-hb" format="2">
  <unicode hex="0597"/>
  <note>
uni0597
</note>
  <anchor x="115" y="528" name="_topleft"/>
  <outline>
    <contour>
      <point x="93" y="650" type="line"/>
      <point x="131" y="692" type="line"/>
      <point x="93" y="735" type="line"/>
      <point x="55" y="692" type="line"/>
    </contour>
  </outline>
</glyph>
<glyph name="yetiv-hb" format="2">
  <unicode hex="059A"/>
  <note>
uni059A
</note>
  <anchor x="102" y="0" name="_bottomleft"/>
  <outline>
    <contour>
      <point x="125" y="-229" type="line"/>
      <point x="154" y="-229" type="line"/>
      <point x="80" y="-154" type="line"/>
      <point x="151" y="-82" type="line"/>
      <point x="121" y="-82" type="line"/>
      <point x="50" y="-153" type="line"/>
    </contour>
  </outline>
</glyph>
<glyph name="gereshaccent-hb" format="2">
  <unicode hex="059C"/>
  <note>
uni059C
</note>
  <anchor x="65" y="528" name="_topleft"/>
  <outline>
    <contour>
      <point x="50" y="650" type="curve"/>
      <point x="79" y="650" type="line"/>
      <point x="79" y="699"/>
      <point x="99" y="727"/>
      <point x="159" y="727" type="curve"/>
      <point x="159" y="756" type="line"/>
      <point x="83" y="756"/>
      <point x="50" y="717"/>
    </contour>
  </outline>
</glyph>
<glyph name="qarneypara-hb" format="2">
  <unicode hex="059F"/>
  <note>
uni059F
</note>
  <anchor x="196" y="528" name="_top"/>
  <outline>
    <contour>
      <point x="232" y="650" type="line"/>
      <point x="256" y="673" type="line"/>
      <point x="264" y="669"/>
      <point x="274" y="667"/>
      <point x="284" y="667" type="curve" smooth="yes"/>
      <point x="317" y="667"/>
      <point x="342" y="693"/>
      <point x="342" y="725" type="curve" smooth="yes"/>
      <point x="342" y="757"/>
      <point x="316" y="782"/>
      <point x="284" y="782" type="curve" smooth="yes"/>
      <point x="252" y="782"/>
      <point x="226" y="757"/>
      <point x="226" y="725" type="curve" smooth="yes"/>
      <point x="226" y="714"/>
      <point x="229" y="704"/>
      <point x="234" y="696" type="curve"/>
      <point x="210" y="672" type="line"/>
    </contour>
    <contour>
      <point x="160" y="650" type="line"/>
      <point x="182" y="672" type="line"/>
      <point x="158" y="696" type="line"/>
      <point x="163" y="704"/>
      <point x="166" y="714"/>
      <point x="166" y="725" type="curve" smooth="yes"/>
      <point x="166" y="757"/>
      <point x="140" y="782"/>
      <point x="108" y="782" type="curve" smooth="yes"/>
      <point x="76" y="782"/>
      <point x="50" y="757"/>
      <point x="50" y="725" type="curve" smooth="yes"/>
      <point x="50" y="693"/>
      <point x="75" y="667"/>
      <point x="108" y="667" type="curve" smooth="yes"/>
      <point x="118" y="667"/>
      <point x="128" y="669"/>
      <point x="136" y="673" type="curve"/>
    </contour>
    <contour>
      <point x="109" y="692" type="curve" smooth="yes"/>
      <point x="90" y="692"/>
      <point x="75" y="707"/>
      <point x="75" y="725" type="curve" smooth="yes"/>
      <point x="75" y="742"/>
      <point x="91" y="758"/>
      <point x="109" y="758" type="curve" smooth="yes"/>
      <point x="126" y="758"/>
      <point x="141" y="743"/>
      <point x="141" y="725" type="curve" smooth="yes"/>
      <point x="141" y="706"/>
      <point x="126" y="692"/>
    </contour>
    <contour>
      <point x="283" y="692" type="curve" smooth="yes"/>
      <point x="266" y="692"/>
      <point x="251" y="706"/>
      <point x="251" y="725" type="curve" smooth="yes"/>
      <point x="251" y="743"/>
      <point x="266" y="758"/>
      <point x="283" y="758" type="curve" smooth="yes"/>
      <point x="301" y="758"/>
      <point x="317" y="742"/>
      <point x="317" y="725" type="curve" smooth="yes"/>
      <point x="317" y="707"/>
      <point x="302" y="692"/>
    </contour>
  </outline>
</glyph>
<glyph name="pazer-hb" format="2">
  <unicode hex="05A1"/>
  <note>
uni05A1
</note>
  <anchor x="115" y="528" name="_top"/>
  <outline>
    <contour>
      <point x="58" y="620" type="line"/>
      <point x="83" y="620" type="line"/>
      <point x="83" y="653" type="line"/>
      <point x="91" y="649"/>
      <point x="102" y="646"/>
      <point x="114" y="646" type="curve" smooth="yes"/>
      <point x="153" y="647"/>
      <point x="171" y="665"/>
      <point x="171" y="708" type="curve" smooth="yes"/>
      <point x="171" y="734" type="line"/>
      <point x="146" y="734" type="line"/>
      <point x="146" y="708" type="line" smooth="yes"/>
      <point x="146" y="681"/>
      <point x="137" y="670"/>
      <point x="115" y="670" type="curve" smooth="yes"/>
      <point x="92" y="670"/>
      <point x="83" y="681"/>
      <point x="83" y="708" type="curve" smooth="yes"/>
      <point x="83" y="734" type="line"/>
      <point x="58" y="734" type="line"/>
    </contour>
  </outline>
</glyph>
<glyph name="munahleft-hb" format="2">
  <unicode hex="05A3"/>
  <note>
uni05A3
</note>
  <anchor x="185" y="0" name="_bottomleft"/>
  <outline>
    <contour>
      <point x="50" y="-213" type="line"/>
      <point x="185" y="-213" type="line"/>
      <point x="185" y="-82" type="line"/>
      <point x="159" y="-82" type="line"/>
      <point x="159" y="-187" type="line"/>
      <point x="50" y="-187" type="line"/>
    </contour>
  </outline>
</glyph>
<glyph name="dargaleft-hb" format="2">
  <unicode hex="05A7"/>
  <note>
uni05A7
</note>
  <anchor x="165" y="0" name="_bottomleft"/>
  <outline>
    <contour>
      <point x="61" y="-219" type="line"/>
      <point x="173" y="-200" type="line"/>
      <point x="96" y="-102" type="line"/>
      <point x="165" y="-89" type="line"/>
      <point x="165" y="-66" type="line"/>
      <point x="58" y="-87" type="line"/>
      <point x="137" y="-187" type="line"/>
      <point x="61" y="-200" type="line"/>
    </contour>
  </outline>
</glyph>
<glyph name="qadma-hb" format="2">
  <unicode hex="05A8"/>
  <note>
uni05A8
</note>
  <anchor x="145" y="528" name="_topleft"/>
  <outline>
    <contour>
      <point x="130" y="650" type="curve"/>
      <point x="159" y="650" type="line"/>
      <point x="159" y="717"/>
      <point x="126" y="756"/>
      <point x="50" y="756" type="curve"/>
      <point x="50" y="727" type="line"/>
      <point x="110" y="727"/>
      <point x="130" y="699"/>
    </contour>
  </outline>
</glyph>
<glyph name="yerahbenyomoleft-hb" format="2">
  <unicode hex="05AA"/>
  <note>
uni05AA
</note>
  <anchor x="115" y="0" name="_bottomleft"/>
  <outline>
    <contour>
      <point x="101" y="-202" type="line"/>
      <point x="127" y="-202" type="line"/>
      <point x="127" y="-160" type="line"/>
      <point x="157" y="-155"/>
      <point x="171" y="-137"/>
      <point x="171" y="-99" type="curve" smooth="yes"/>
      <point x="171" y="-82" type="line"/>
      <point x="146" y="-82" type="line"/>
      <point x="146" y="-99" type="line" smooth="yes"/>
      <point x="146" y="-126"/>
      <point x="137" y="-137"/>
      <point x="115" y="-137" type="curve" smooth="yes"/>
      <point x="92" y="-137"/>
      <point x="83" y="-126"/>
      <point x="83" y="-99" type="curve" smooth="yes"/>
      <point x="83" y="-82" type="line"/>
      <point x="58" y="-82" type="line"/>
      <point x="58" y="-99" type="line" smooth="yes"/>
      <point x="58" y="-137"/>
      <point x="72" y="-155"/>
      <point x="101" y="-160" type="curve"/>
    </contour>
  </outline>
</glyph>
<glyph name="ole-hb" format="2">
  <unicode hex="05AB"/>
  <note>
uni05AB
</note>
  <anchor x="101" y="528" name="_top"/>
  <outline>
    <contour>
      <point x="125" y="647" type="line"/>
      <point x="154" y="647" type="line"/>
      <point x="80" y="722" type="line"/>
      <point x="151" y="794" type="line"/>
      <point x="121" y="794" type="line"/>
      <point x="50" y="723" type="line"/>
    </contour>
  </outline>
</glyph>
<glyph name="iluy-hb" format="2">
  <unicode hex="05AC"/>
  <note>
uni05AC
</note>
  <anchor x="125" y="528" name="_top"/>
  <outline>
    <contour>
      <point x="59" y="650" type="line"/>
      <point x="191" y="650" type="line"/>
      <point x="191" y="777" type="line"/>
      <point x="165" y="777" type="line"/>
      <point x="165" y="676" type="line"/>
      <point x="59" y="676" type="line"/>
    </contour>
  </outline>
</glyph>
<glyph name="masoracircle-hb" format="2">
  <unicode hex="05AF"/>
  <note>
uni05AF
</note>
  <anchor x="107" y="528" name="_top"/>
  <outline>
    <contour>
      <point x="107" y="650" type="curve" smooth="yes"/>
      <point x="139" y="650"/>
      <point x="164" y="675"/>
      <point x="164" y="707" type="curve" smooth="yes"/>
      <point x="164" y="738"/>
      <point x="138" y="764"/>
      <point x="107" y="764" type="curve" smooth="yes"/>
      <point x="76" y="764"/>
      <point x="50" y="738"/>
      <point x="50" y="707" type="curve" smooth="yes"/>
      <point x="50" y="675"/>
      <point x="75" y="650"/>
    </contour>
    <contour>
      <point x="107" y="674" type="curve" smooth="yes"/>
      <point x="89" y="674"/>
      <point x="75" y="689"/>
      <point x="75" y="707" type="curve" smooth="yes"/>
      <point x="75" y="725"/>
      <point x="90" y="739"/>
      <point x="107" y="739" type="curve" smooth="yes"/>
      <point x="124" y="739"/>
      <point x="139" y="725"/>
      <point x="139" y="707" type="curve" smooth="yes"/>
      <point x="139" y="689"/>
      <point x="125" y="674"/>
    </contour>
  </outline>
</glyph>
<glyph name="sheva-hb" format="2">
  <unicode hex="05B0"/>
  <note>
sheva
</note>
  <anchor x="71" y="0" name="_bottom"/>
  <outline>
    <contour>
      <point x="71" y="-116" type="curve" smooth="yes"/>
      <point x="83" y="-116"/>
      <point x="93" y="-106"/>
      <point x="93" y="-93" type="curve" smooth="yes"/>
      <point x="93" y="-81"/>
      <point x="83" y="-71"/>
      <point x="71" y="-71" type="curve" smooth="yes"/>
      <point x="58" y="-71"/>
      <point x="48" y="-81"/>
      <point x="48" y="-93" type="curve" smooth="yes"/>
      <point x="48" y="-106"/>
      <point x="58" y="-116"/>
    </contour>
    <contour>
      <point x="71" y="-206" type="curve" smooth="yes"/>
      <point x="83" y="-206"/>
      <point x="93" y="-196"/>
      <point x="93" y="-183" type="curve" smooth="yes"/>
      <point x="93" y="-171"/>
      <point x="83" y="-161"/>
      <point x="71" y="-161" type="curve" smooth="yes"/>
      <point x="58" y="-161"/>
      <point x="48" y="-171"/>
      <point x="48" y="-183" type="curve" smooth="yes"/>
      <point x="48" y="-196"/>
      <point x="58" y="-206"/>
    </contour>
  </outline>
</glyph>
<glyph name="hatafsegol-hb" format="2">
  <unicode hex="05B1"/>
  <note>
hatafsegol
</note>
  <anchor x="160" y="0" name="_bottom"/>
  <outline>
    <contour>
      <point x="119" y="-206" type="curve" smooth="yes"/>
      <point x="131" y="-206"/>
      <point x="141" y="-196"/>
      <point x="141" y="-183" type="curve" smooth="yes"/>
      <point x="141" y="-171"/>
      <point x="131" y="-161"/>
      <point x="119" y="-161" type="curve" smooth="yes"/>
      <point x="106" y="-161"/>
      <point x="96" y="-171"/>
      <point x="96" y="-183" type="curve" smooth="yes"/>
      <point x="96" y="-196"/>
      <point x="106" y="-206"/>
    </contour>
    <contour>
      <point x="72" y="-116" type="curve" smooth="yes"/>
      <point x="84" y="-116"/>
      <point x="94" y="-106"/>
      <point x="94" y="-93" type="curve" smooth="yes"/>
      <point x="94" y="-81"/>
      <point x="84" y="-71"/>
      <point x="72" y="-71" type="curve" smooth="yes"/>
      <point x="59" y="-71"/>
      <point x="49" y="-81"/>
      <point x="49" y="-93" type="curve" smooth="yes"/>
      <point x="49" y="-106"/>
      <point x="59" y="-116"/>
    </contour>
    <contour>
      <point x="168" y="-116" type="curve" smooth="yes"/>
      <point x="180" y="-116"/>
      <point x="190" y="-106"/>
      <point x="190" y="-93" type="curve" smooth="yes"/>
      <point x="190" y="-81"/>
      <point x="180" y="-71"/>
      <point x="168" y="-71" type="curve" smooth="yes"/>
      <point x="155" y="-71"/>
      <point x="145" y="-81"/>
      <point x="145" y="-93" type="curve" smooth="yes"/>
      <point x="145" y="-106"/>
      <point x="155" y="-116"/>
    </contour>
    <contour>
      <point x="249" y="-116" type="curve" smooth="yes"/>
      <point x="261" y="-116"/>
      <point x="271" y="-106"/>
      <point x="271" y="-93" type="curve" smooth="yes"/>
      <point x="271" y="-81"/>
      <point x="261" y="-71"/>
      <point x="249" y="-71" type="curve" smooth="yes"/>
      <point x="236" y="-71"/>
      <point x="226" y="-81"/>
      <point x="226" y="-93" type="curve" smooth="yes"/>
      <point x="226" y="-106"/>
      <point x="236" y="-116"/>
    </contour>
    <contour>
      <point x="249" y="-206" type="curve" smooth="yes"/>
      <point x="261" y="-206"/>
      <point x="271" y="-196"/>
      <point x="271" y="-183" type="curve" smooth="yes"/>
      <point x="271" y="-171"/>
      <point x="261" y="-161"/>
      <point x="249" y="-161" type="curve" smooth="yes"/>
      <point x="236" y="-161"/>
      <point x="226" y="-171"/>
      <point x="226" y="-183" type="curve" smooth="yes"/>
      <point x="226" y="-196"/>
      <point x="236" y="-206"/>
    </contour>
  </outline>
</glyph>
<glyph name="hatafpatah-hb" format="2">
  <unicode hex="05B2"/>
  <note>
hatafpatah
</note>
  <anchor x="163" y="0" name="_bottom"/>
  <outline>
    <contour>
      <point x="50" y="-107" type="line"/>
      <point x="196" y="-107" type="line"/>
      <point x="196" y="-82" type="line"/>
      <point x="50" y="-82" type="line"/>
    </contour>
    <contour>
      <point x="254" y="-116" type="curve" smooth="yes"/>
      <point x="266" y="-116"/>
      <point x="276" y="-106"/>
      <point x="276" y="-93" type="curve" smooth="yes"/>
      <point x="276" y="-81"/>
      <point x="266" y="-71"/>
      <point x="254" y="-71" type="curve" smooth="yes"/>
      <point x="241" y="-71"/>
      <point x="231" y="-81"/>
      <point x="231" y="-93" type="curve" smooth="yes"/>
      <point x="231" y="-106"/>
      <point x="241" y="-116"/>
    </contour>
    <contour>
      <point x="254" y="-206" type="curve" smooth="yes"/>
      <point x="266" y="-206"/>
      <point x="276" y="-196"/>
      <point x="276" y="-183" type="curve" smooth="yes"/>
      <point x="276" y="-171"/>
      <point x="266" y="-161"/>
      <point x="254" y="-161" type="curve" smooth="yes"/>
      <point x="241" y="-161"/>
      <point x="231" y="-171"/>
      <point x="231" y="-183" type="curve" smooth="yes"/>
      <point x="231" y="-196"/>
      <point x="241" y="-206"/>
    </contour>
  </outline>
</glyph>
<glyph name="hatafqamats-hb" format="2">
  <unicode hex="05B3"/>
  <note>
hatafqamats
</note>
  <anchor x="163" y="0" name="_bottom"/>
  <outline>
    <contour>
      <point x="111" y="-196" type="line"/>
      <point x="136" y="-196" type="line"/>
      <point x="136" y="-106" type="line"/>
      <point x="198" y="-106" type="line"/>
      <point x="198" y="-81" type="line"/>
      <point x="50" y="-81" type="line"/>
      <point x="50" y="-106" type="line"/>
      <point x="111" y="-106" type="line"/>
    </contour>
    <contour>
      <point x="255" y="-116" type="curve" smooth="yes"/>
      <point x="267" y="-116"/>
      <point x="277" y="-106"/>
      <point x="277" y="-93" type="curve" smooth="yes"/>
      <point x="277" y="-81"/>
      <point x="267" y="-71"/>
      <point x="255" y="-71" type="curve" smooth="yes"/>
      <point x="242" y="-71"/>
      <point x="232" y="-81"/>
      <point x="232" y="-93" type="curve" smooth="yes"/>
      <point x="232" y="-106"/>
      <point x="242" y="-116"/>
    </contour>
    <contour>
      <point x="255" y="-206" type="curve" smooth="yes"/>
      <point x="267" y="-206"/>
      <point x="277" y="-196"/>
      <point x="277" y="-183" type="curve" smooth="yes"/>
      <point x="277" y="-171"/>
      <point x="267" y="-161"/>
      <point x="255" y="-161" type="curve" smooth="yes"/>
      <point x="242" y="-161"/>
      <point x="232" y="-171"/>
      <point x="232" y="-183" type="curve" smooth="yes"/>
      <point x="232" y="-196"/>
      <point x="242" y="-206"/>
    </contour>
  </outline>
</glyph>
<glyph name="hiriq-hb" format="2">
  <unicode hex="05B4"/>
  <note>
hiriq
</note>
  <anchor x="72" y="0" name="_bottom"/>
  <outline>
    <contour>
      <point x="72" y="-116" type="curve" smooth="yes"/>
      <point x="84" y="-116"/>
      <point x="94" y="-106"/>
      <point x="94" y="-93" type="curve" smooth="yes"/>
      <point x="94" y="-81"/>
      <point x="84" y="-71"/>
      <point x="72" y="-71" type="curve" smooth="yes"/>
      <point x="59" y="-71"/>
      <point x="49" y="-81"/>
      <point x="49" y="-93" type="curve" smooth="yes"/>
      <point x="49" y="-106"/>
      <point x="59" y="-116"/>
    </contour>
  </outline>
</glyph>
<glyph name="tsere-hb" format="2">
  <unicode hex="05B5"/>
  <note>
tsere
</note>
  <anchor x="115" y="0" name="_bottom"/>
  <outline>
    <contour>
      <point x="71" y="-116" type="curve" smooth="yes"/>
      <point x="83" y="-116"/>
      <point x="93" y="-106"/>
      <point x="93" y="-93" type="curve" smooth="yes"/>
      <point x="93" y="-81"/>
      <point x="83" y="-71"/>
      <point x="71" y="-71" type="curve" smooth="yes"/>
      <point x="58" y="-71"/>
      <point x="48" y="-81"/>
      <point x="48" y="-93" type="curve" smooth="yes"/>
      <point x="48" y="-106"/>
      <point x="58" y="-116"/>
    </contour>
    <contour>
      <point x="159" y="-116" type="curve" smooth="yes"/>
      <point x="171" y="-116"/>
      <point x="181" y="-106"/>
      <point x="181" y="-93" type="curve" smooth="yes"/>
      <point x="181" y="-81"/>
      <point x="171" y="-71"/>
      <point x="159" y="-71" type="curve" smooth="yes"/>
      <point x="146" y="-71"/>
      <point x="136" y="-81"/>
      <point x="136" y="-93" type="curve" smooth="yes"/>
      <point x="136" y="-106"/>
      <point x="146" y="-116"/>
    </contour>
  </outline>
</glyph>
<glyph name="patah-hb" format="2">
  <unicode hex="05B7"/>
  <note>
patah
</note>
  <anchor x="124" y="0" name="_bottom"/>
  <outline>
    <contour>
      <point x="50" y="-107" type="line"/>
      <point x="198" y="-107" type="line"/>
      <point x="198" y="-82" type="line"/>
      <point x="50" y="-82" type="line"/>
    </contour>
  </outline>
</glyph>
<glyph name="qamats-hb" format="2">
  <unicode hex="05B8"/>
  <note>
qamats
</note>
  <anchor x="125" y="0" name="_bottom"/>
  <outline>
    <contour>
      <point x="112" y="-198" type="line"/>
      <point x="137" y="-198" type="line"/>
      <point x="137" y="-107" type="line"/>
      <point x="199" y="-107" type="line"/>
      <point x="199" y="-82" type="line"/>
      <point x="50" y="-82" type="line"/>
      <point x="50" y="-107" type="line"/>
      <point x="112" y="-107" type="line"/>
    </contour>
  </outline>
</glyph>
<glyph name="dagesh-hb" format="2">
  <unicode hex="05BC"/>
  <note>
dagesh
</note>
  <anchor x="71" y="296" name="_center"/>
  <outline>
    <contour>
      <point x="72" y="273" type="curve" smooth="yes"/>
      <point x="84" y="273"/>
      <point x="94" y="283"/>
      <point x="94" y="296" type="curve" smooth="yes"/>
      <point x="94" y="308"/>
      <point x="84" y="318"/>
      <point x="72" y="318" type="curve" smooth="yes"/>
      <point x="59" y="318"/>
      <point x="49" y="308"/>
      <point x="49" y="296" type="curve" smooth="yes"/>
      <point x="49" y="283"/>
      <point x="59" y="273"/>
    </contour>
  </outline>
</glyph>
<glyph name="maqaf-hb" format="2">
  <advance width="322"/>
  <unicode hex="05BE"/>
  <outline>
    <contour>
      <point x="40" y="557" type="line"/>
      <point x="282" y="557" type="line"/>
      <point x="282" y="584" type="line"/>
      <point x="40" y="584" type="line"/>
    </contour>
  </outline>
</glyph>
<glyph name="rafe-hb" format="2">
  <unicode hex="05BF"/>
  <note>
rafe
</note>
  <anchor x="132" y="528" name="_top"/>
  <outline>
    <contour>
      <point x="50" y="667" type="line"/>
      <point x="214" y="667" type="line"/>
      <point x="214" y="692" type="line"/>
      <point x="50" y="692" type="line"/>
    </contour>
  </outline>
</glyph>
<glyph name="paseq-hb" format="2">
  <advance width="535"/>
  <unicode hex="05C0"/>
  <note>
paseq
</note>
  <outline>
    <contour>
      <point x="253" y="763" type="line"/>
      <point x="253" y="-251" type="line"/>
      <point x="278" y="-251" type="line"/>
      <point x="278" y="763" type="line"/>
    </contour>
  </outline>
</glyph>
<glyph name="sofpasuq-hb" format="2">
  <advance width="220"/>
  <unicode hex="05C3"/>
  <note>
sofpasuq
</note>
  <outline>
    <contour>
      <point x="85" y="23" type="curve" smooth="yes"/>
      <point x="85" y="6"/>
      <point x="90" y="-8"/>
      <point x="110" y="-8" type="curve" smooth="yes"/>
      <point x="134" y="-8"/>
      <point x="137" y="6"/>
      <point x="137" y="23" type="curve" smooth="yes"/>
      <point x="137" y="39"/>
      <point x="134" y="54"/>
      <point x="110" y="54" type="curve" smooth="yes"/>
      <point x="90" y="54"/>
      <point x="85" y="39"/>
    </contour>
    <contour>
      <point x="85" y="501" type="curve" smooth="yes"/>
      <point x="85" y="484"/>
      <point x="90" y="470"/>
      <point x="110" y="470" type="curve" smooth="yes"/>
      <point x="134" y="470"/>
      <point x="137" y="484"/>
      <point x="137" y="501" type="curve" smooth="yes"/>
      <point x="137" y="517"/>
      <point x="134" y="532"/>
      <point x="110" y="532" type="curve" smooth="yes"/>
      <point x="90" y="532"/>
      <point x="85" y="517"/>
    </contour>
  </outline>
</glyph>
<glyph name="nunhafukha-hb" format="2">
  <advance width="350"/>
  <unicode hex="05C6"/>
  <note>
uni05C6
</note>
  <outline>
    <contour>
      <point x="85" y="0" type="line"/>
      <point x="315" y="0" type="line"/>
      <point x="315" y="27" type="line"/>
      <point x="111" y="27" type="line"/>
      <point x="111" y="416" type="line" smooth="yes"/>
      <point x="111" y="518"/>
      <point x="162" y="557"/>
      <point x="250" y="557" type="curve" smooth="yes"/>
      <point x="280" y="557" type="line"/>
      <point x="280" y="584" type="line"/>
      <point x="245" y="584" type="line" smooth="yes"/>
      <point x="144" y="584"/>
      <point x="85" y="531"/>
      <point x="85" y="419" type="curve" smooth="yes"/>
    </contour>
  </outline>
</glyph>
<glyph name="alef-hb" format="2">
  <advance width="588"/>
  <unicode hex="05D0"/>
  <anchor x="281" y="0" name="bottom"/>
  <anchor x="110" y="0" name="bottomleft"/>
  <anchor x="265" y="127" name="center"/>
  <anchor x="299" y="528" name="top"/>
  <anchor x="83" y="528" name="topleft"/>
  <outline>
    <contour>
      <point x="508" y="0" type="curve"/>
      <point x="543" y="0" type="line"/>
      <point x="456" y="148"/>
      <point x="340" y="307"/>
      <point x="260" y="405" type="curve" smooth="yes"/>
      <point x="179" y="504"/>
      <point x="146" y="542"/>
      <point x="110" y="584" type="curve"/>
      <point x="74" y="584" type="line"/>
      <point x="109" y="543"/>
      <point x="145" y="502"/>
      <point x="226" y="401" type="curve" smooth="yes"/>
      <point x="305" y="304"/>
      <point x="421" y="149"/>
    </contour>
    <contour>
      <point x="45" y="0" type="line"/>
      <point x="77" y="0" type="line"/>
      <point x="101" y="174" type="line" smooth="yes"/>
      <point x="116" y="283"/>
      <point x="149" y="356"/>
      <point x="233" y="404" type="curve"/>
      <point x="217" y="426" type="line"/>
      <point x="125" y="373"/>
      <point x="86" y="294"/>
      <point x="69" y="171" type="curve" smooth="yes"/>
    </contour>
    <contour>
      <point x="372" y="248" type="line"/>
      <point x="464" y="301"/>
      <point x="517" y="377"/>
      <point x="527" y="501" type="curve" smooth="yes"/>
      <point x="534" y="584" type="line"/>
      <point x="502" y="584" type="line"/>
      <point x="495" y="498" type="line" smooth="yes"/>
      <point x="486" y="388"/>
      <point x="440" y="318"/>
      <point x="356" y="270" type="curve"/>
    </contour>
  </outline>
</glyph>
<glyph name="bet-hb" format="2">
  <advance width="549"/>
  <unicode hex="05D1"/>
  <anchor x="252" y="0" name="bottom"/>
  <anchor x="43" y="0" name="bottomleft"/>
  <anchor x="222" y="296" name="center"/>
  <anchor x="214" y="528" name="top"/>
  <anchor x="43" y="528" name="topleft"/>
  <outline>
    <contour>
      <point x="395" y="0" type="line"/>
      <point x="417" y="0" type="line"/>
      <point x="424" y="6"/>
      <point x="427" y="9"/>
      <point x="427" y="17" type="curve"/>
      <point x="427" y="419" type="line" smooth="yes"/>
      <point x="427" y="527"/>
      <point x="370" y="584"/>
      <point x="264" y="584" type="curve" smooth="yes"/>
      <point x="85" y="584" type="line"/>
      <point x="80" y="557" type="line"/>
      <point x="259" y="557" type="line" smooth="yes"/>
      <point x="352" y="557"/>
      <point x="395" y="511"/>
      <point x="395" y="416" type="curve" smooth="yes"/>
    </contour>
    <contour>
      <point x="50" y="0" type="line"/>
      <point x="494" y="0" type="line"/>
      <point x="499" y="27" type="line"/>
      <point x="50" y="27" type="line"/>
    </contour>
  </outline>
</glyph>
<glyph name="gimel-hb" format="2">
  <advance width="336"/>
  <unicode hex="05D2"/>
  <anchor x="206" y="0" name="bottom"/>
  <anchor x="21" y="0" name="bottomleft"/>
  <anchor x="112" y="316" name="center"/>
  <anchor x="155" y="528" name="top"/>
  <anchor x="66" y="528" name="topleft"/>
  <outline>
    <contour>
      <point x="284" y="-5" type="line"/>
      <point x="313" y="7" type="line"/>
      <point x="262" y="146" type="line"/>
      <point x="262" y="479" type="line" smooth="yes"/>
      <point x="262" y="548"/>
      <point x="224" y="584"/>
      <point x="160" y="584" type="curve" smooth="yes"/>
      <point x="93" y="584" type="line"/>
      <point x="88" y="557" type="line"/>
      <point x="155" y="557" type="line" smooth="yes"/>
      <point x="205" y="557"/>
      <point x="230" y="529"/>
      <point x="230" y="476" type="curve" smooth="yes"/>
      <point x="230" y="184" type="line"/>
      <point x="207" y="120"/>
      <point x="112" y="27"/>
      <point x="28" y="27" type="curve" smooth="yes"/>
      <point x="25" y="27" type="line"/>
      <point x="25" y="0" type="line"/>
      <point x="31" y="0" type="line" smooth="yes"/>
      <point x="113" y="0"/>
      <point x="183" y="59"/>
      <point x="233" y="131" type="curve"/>
      <point x="236" y="131" type="line"/>
    </contour>
  </outline>
</glyph>
<glyph name="dalet-hb" format="2">
  <advance width="513"/>
  <unicode hex="05D3"/>
  <anchor x="361" y="0" name="bottom"/>
  <anchor x="181" y="0" name="bottomleft"/>
  <anchor x="181" y="296" name="center"/>
  <anchor x="242" y="528" name="top"/>
  <anchor x="13" y="528" name="topleft"/>
  <outline>
    <contour>
      <point x="40" y="557" type="line"/>
      <point x="468" y="557" type="line"/>
      <point x="473" y="584" type="line"/>
      <point x="40" y="584" type="line"/>
    </contour>
    <contour>
      <point x="346" y="0" type="line"/>
      <point x="378" y="0" type="line"/>
      <point x="378" y="509" type="line"/>
      <point x="378" y="528"/>
      <point x="380" y="548"/>
      <point x="383" y="557" type="curve"/>
      <point x="359" y="557" type="line"/>
      <point x="350" y="550"/>
      <point x="346" y="528"/>
      <point x="346" y="509" type="curve"/>
    </contour>
  </outline>
</glyph>
<glyph name="he-hb" format="2">
  <advance width="596"/>
  <unicode hex="05D4"/>
  <anchor x="278" y="0" name="bottom"/>
  <anchor x="47" y="0" name="bottomleft"/>
  <anchor x="278" y="296" name="center"/>
  <anchor x="275" y="528" name="top"/>
  <anchor x="45" y="528" name="topleft"/>
  <outline>
    <contour>
      <point x="479" y="0" type="line"/>
      <point x="511" y="0" type="line"/>
      <point x="511" y="419" type="line" smooth="yes"/>
      <point x="511" y="527"/>
      <point x="454" y="584"/>
      <point x="348" y="584" type="curve" smooth="yes"/>
      <point x="60" y="584" type="line"/>
      <point x="55" y="557" type="line"/>
      <point x="343" y="557" type="line" smooth="yes"/>
      <point x="436" y="557"/>
      <point x="479" y="511"/>
      <point x="479" y="416" type="curve" smooth="yes"/>
    </contour>
    <contour>
      <point x="74" y="0" type="line"/>
      <point x="106" y="0" type="line"/>
      <point x="106" y="355" type="line"/>
      <point x="74" y="350" type="line"/>
    </contour>
  </outline>
</glyph>
<glyph name="vav-hb" format="2">
  <advance width="264"/>
  <unicode hex="05D5"/>
  <anchor x="154" y="0" name="bottom"/>
  <anchor x="84" y="0" name="bottomleft"/>
  <anchor x="44" y="296" name="center"/>
  <anchor x="156" y="528" name="top"/>
  <anchor x="156" y="528" name="topleft"/>
  <outline>
    <contour>
      <point x="140" y="0" type="line"/>
      <point x="172" y="0" type="line"/>
      <point x="172" y="584" type="line"/>
      <point x="140" y="584" type="line"/>
    </contour>
    <contour>
      <point x="40" y="557" type="line"/>
      <point x="160" y="557" type="line"/>
      <point x="160" y="584" type="line"/>
      <point x="45" y="584" type="line"/>
    </contour>
  </outline>
</glyph>
<glyph name="zayin-hb" format="2">
  <advance width="289"/>
  <unicode hex="05D6"/>
  <anchor x="155" y="0" name="bottom"/>
  <anchor x="8" y="0" name="bottomleft"/>
  <anchor x="25" y="296" name="center"/>
  <anchor x="146" y="528" name="top"/>
  <anchor x="39" y="528" name="topleft"/>
  <outline>
    <contour>
      <point x="131" y="0" type="curve"/>
      <point x="163" y="0" type="line"/>
      <point x="146" y="135"/>
      <point x="128" y="311"/>
      <point x="128" y="382" type="curve" smooth="yes"/>
      <point x="128" y="443"/>
      <point x="145" y="528"/>
      <point x="243" y="557" type="curve"/>
      <point x="190" y="557" type="line"/>
      <point x="124" y="527"/>
      <point x="96" y="442"/>
      <point x="96" y="382" type="curve" smooth="yes"/>
      <point x="96" y="311"/>
      <point x="114" y="131"/>
    </contour>
    <contour>
      <point x="45" y="557" type="line"/>
      <point x="243" y="557" type="line"/>
      <point x="248" y="584" type="line"/>
      <point x="45" y="584" type="line"/>
    </contour>
  </outline>
</glyph>
<glyph name="het-hb" format="2">
  <advance width="637"/>
  <unicode hex="05D7"/>
  <anchor x="332" y="0" name="bottom"/>
  <anchor x="98" y="0" name="bottomleft"/>
  <anchor x="332" y="296" name="center"/>
  <anchor x="332" y="528" name="top"/>
  <anchor x="98" y="528" name="topleft"/>
  <outline>
    <contour>
      <point x="389" y="584" type="curve" smooth="yes"/>
      <point x="108" y="584" type="line"/>
      <point x="108" y="557" type="line"/>
      <point x="140" y="557" type="line"/>
      <point x="125" y="543"/>
      <point x="108" y="488"/>
      <point x="108" y="421" type="curve"/>
      <point x="108" y="0" type="line"/>
      <point x="140" y="0" type="line"/>
      <point x="140" y="421" type="line"/>
      <point x="140" y="503"/>
      <point x="158" y="543"/>
      <point x="166" y="557" type="curve"/>
      <point x="384" y="557" type="line" smooth="yes"/>
      <point x="477" y="557"/>
      <point x="520" y="511"/>
      <point x="520" y="416" type="curve" smooth="yes"/>
      <point x="520" y="0" type="line"/>
      <point x="552" y="0" type="line"/>
      <point x="552" y="419" type="line" smooth="yes"/>
      <point x="552" y="527"/>
      <point x="495" y="584"/>
    </contour>
    <contour>
      <point x="55" y="557" type="line"/>
      <point x="218" y="557" type="line"/>
      <point x="218" y="584" type="line"/>
      <point x="60" y="584" type="line"/>
    </contour>
  </outline>
</glyph>
<glyph name="tet-hb" format="2">
  <advance width="607"/>
  <unicode hex="05D8"/>
  <anchor x="299" y="0" name="bottom"/>
  <anchor x="3" y="0" name="bottomleft"/>
  <anchor x="299" y="316" name="center"/>
  <anchor x="236" y="528" name="top"/>
  <anchor x="83" y="528" name="topleft"/>
  <outline>
    <contour>
      <point x="300" y="-10" type="curve" smooth="yes"/>
      <point x="456" y="-10"/>
      <point x="547" y="103"/>
      <point x="547" y="320" type="curve" smooth="yes"/>
      <point x="547" y="493"/>
      <point x="499" y="591"/>
      <point x="369" y="587" type="curve" smooth="yes"/>
      <point x="340" y="586"/>
      <point x="310" y="582"/>
      <point x="281" y="577" type="curve"/>
      <point x="281" y="550" type="line"/>
      <point x="309" y="555"/>
      <point x="337" y="559"/>
      <point x="365" y="560" type="curve" smooth="yes"/>
      <point x="476" y="564"/>
      <point x="515" y="476"/>
      <point x="515" y="320" type="curve" smooth="yes"/>
      <point x="515" y="120"/>
      <point x="435" y="15"/>
      <point x="300" y="15" type="curve" smooth="yes"/>
      <point x="176" y="15"/>
      <point x="102" y="120"/>
      <point x="102" y="320" type="curve" smooth="yes"/>
      <point x="102" y="584" type="line"/>
      <point x="70" y="584" type="line"/>
      <point x="70" y="320" type="line" smooth="yes"/>
      <point x="70" y="103"/>
      <point x="155" y="-10"/>
    </contour>
  </outline>
</glyph>
<glyph name="yod-hb" format="2">
  <advance width="257"/>
  <unicode hex="05D9"/>
  <anchor x="146" y="0" name="bottom"/>
  <anchor x="71" y="0" name="bottomleft"/>
  <anchor x="49" y="427" name="center"/>
  <anchor x="156" y="528" name="top"/>
  <anchor x="143" y="528" name="topleft"/>
  <outline>
    <contour>
      <point x="140" y="270" type="line"/>
      <point x="172" y="270" type="line"/>
      <point x="172" y="584" type="line"/>
      <point x="140" y="584" type="line"/>
    </contour>
    <contour>
      <point x="40" y="557" type="line"/>
      <point x="160" y="557" type="line"/>
      <point x="160" y="584" type="line"/>
      <point x="45" y="584" type="line"/>
    </contour>
  </outline>
</glyph>
<glyph name="finalkaf-hb" format="2">
  <advance width="519"/>
  <unicode hex="05DA"/>
  <anchor x="212" y="199" name="bottom"/>
  <anchor x="10" y="0" name="bottomleft"/>
  <anchor x="212" y="296" name="center"/>
  <anchor x="167" y="528" name="top"/>
  <anchor x="10" y="528" name="topleft"/>
  <outline>
    <contour>
      <point x="410" y="-198" type="line"/>
      <point x="442" y="-195" type="line"/>
      <point x="442" y="382" type="line" smooth="yes"/>
      <point x="442" y="509"/>
      <point x="382" y="584"/>
      <point x="276" y="584" type="curve" smooth="yes"/>
      <point x="52" y="584" type="line"/>
      <point x="47" y="557" type="line"/>
      <point x="276" y="557" type="line" smooth="yes"/>
      <point x="360" y="557"/>
      <point x="410" y="492"/>
      <point x="410" y="382" type="curve" smooth="yes"/>
    </contour>
  </outline>
</glyph>
<glyph name="kaf-hb" format="2">
  <advance width="501"/>
  <unicode hex="05DB"/>
  <anchor x="186" y="0" name="bottom"/>
  <anchor x="20" y="0" name="bottomleft"/>
  <anchor x="194" y="296" name="center"/>
  <anchor x="170" y="528" name="top"/>
  <anchor x="10" y="528" name="topleft"/>
  <outline>
    <contour>
      <point x="57" y="0" type="line"/>
      <point x="206" y="0" type="line" smooth="yes"/>
      <point x="362" y="0"/>
      <point x="444" y="100"/>
      <point x="444" y="292" type="curve" smooth="yes"/>
      <point x="444" y="484"/>
      <point x="362" y="584"/>
      <point x="206" y="584" type="curve" smooth="yes"/>
      <point x="62" y="584" type="line"/>
      <point x="57" y="557" type="line"/>
      <point x="206" y="557" type="line" smooth="yes"/>
      <point x="340" y="557"/>
      <point x="410" y="466"/>
      <point x="410" y="292" type="curve" smooth="yes"/>
      <point x="410" y="118"/>
      <point x="340" y="27"/>
      <point x="206" y="27" type="curve" smooth="yes"/>
      <point x="57" y="27" type="line"/>
    </contour>
  </outline>
</glyph>
<glyph name="lamed-hb" format="2">
  <advance width="489"/>
  <unicode hex="05DC"/>
  <anchor x="233" y="0" name="bottom"/>
  <anchor x="227" y="0" name="bottomleft"/>
  <anchor x="142" y="334" name="center"/>
  <anchor x="239" y="528" name="top"/>
  <anchor x="-21" y="528" name="topleft"/>
  <outline>
    <contour>
      <point x="74" y="584" type="line"/>
      <point x="74" y="760" type="line"/>
      <point x="42" y="755" type="line"/>
      <point x="42" y="557" type="line"/>
      <point x="407" y="557" type="line"/>
      <point x="227" y="0" type="line"/>
      <point x="259" y="0" type="line"/>
      <point x="439" y="557" type="line"/>
      <point x="447" y="584" type="line"/>
    </contour>
  </outline>
</glyph>
<glyph name="finalmem-hb" format="2">
  <advance width="666"/>
  <unicode hex="05DD"/>
  <anchor x="344" y="0" name="bottom"/>
  <anchor x="110" y="0" name="bottomleft"/>
  <anchor x="344" y="292" name="center"/>
  <anchor x="344" y="528" name="top"/>
  <anchor x="110" y="528" name="topleft"/>
  <outline>
    <contour>
      <point x="418" y="584" type="curve" smooth="yes"/>
      <point x="62" y="584" type="line"/>
      <point x="57" y="557" type="line"/>
      <point x="140" y="557" type="line"/>
      <point x="131" y="550"/>
      <point x="127" y="528"/>
      <point x="127" y="509" type="curve" smooth="yes"/>
      <point x="127" y="0" type="line"/>
      <point x="581" y="0" type="line"/>
      <point x="581" y="419" type="line" smooth="yes"/>
      <point x="581" y="527"/>
      <point x="524" y="584"/>
    </contour>
    <contour>
      <point x="549" y="27" type="line"/>
      <point x="159" y="27" type="line"/>
      <point x="159" y="509" type="line" smooth="yes"/>
      <point x="159" y="528"/>
      <point x="161" y="548"/>
      <point x="164" y="557" type="curve"/>
      <point x="413" y="557" type="line" smooth="yes"/>
      <point x="506" y="557"/>
      <point x="549" y="511"/>
      <point x="549" y="416" type="curve" smooth="yes"/>
    </contour>
  </outline>
</glyph>
<glyph name="mem-hb" format="2">
  <advance width="618"/>
  <unicode hex="05DE"/>
  <anchor x="330" y="0" name="bottom"/>
  <anchor x="66" y="0" name="bottomleft"/>
  <anchor x="330" y="296" name="center"/>
  <anchor x="345" y="528" name="top"/>
  <anchor x="89" y="528" name="topleft"/>
  <outline>
    <contour>
      <point x="70" y="0" type="line"/>
      <point x="102" y="0" type="line"/>
      <point x="173" y="376" type="line" smooth="yes"/>
      <point x="187" y="449"/>
      <point x="227" y="566"/>
      <point x="358" y="566" type="curve" smooth="yes"/>
      <point x="459" y="566"/>
      <point x="536" y="496"/>
      <point x="536" y="318" type="curve" smooth="yes"/>
      <point x="536" y="303" type="line" smooth="yes"/>
      <point x="536" y="135"/>
      <point x="466" y="27"/>
      <point x="335" y="27" type="curve" smooth="yes"/>
      <point x="235" y="27" type="line"/>
      <point x="231" y="0" type="line"/>
      <point x="336" y="0" type="line" smooth="yes"/>
      <point x="488" y="0"/>
      <point x="568" y="117"/>
      <point x="568" y="303" type="curve" smooth="yes"/>
      <point x="568" y="318" type="line" smooth="yes"/>
      <point x="568" y="513"/>
      <point x="481" y="593"/>
      <point x="358" y="593" type="curve" smooth="yes"/>
      <point x="218" y="593"/>
      <point x="172" y="480"/>
      <point x="154" y="405" type="curve"/>
      <point x="153" y="405" type="line"/>
      <point x="92" y="584" type="line"/>
      <point x="60" y="584" type="line"/>
      <point x="141" y="356" type="line"/>
    </contour>
  </outline>
</glyph>
<glyph name="finalnun-hb" format="2">
  <advance width="303"/>
  <unicode hex="05DF"/>
  <anchor x="68" y="0" name="bottomleft"/>
  <anchor x="120" y="296" name="center"/>
  <anchor x="141" y="528" name="top"/>
  <anchor x="68" y="528" name="topleft"/>
  <outline>
    <contour>
      <point x="150" y="-198" type="line"/>
      <point x="182" y="-195" type="line"/>
      <point x="182" y="584" type="line"/>
      <point x="150" y="584" type="line"/>
    </contour>
    <contour>
      <point x="50" y="557" type="line"/>
      <point x="170" y="557" type="line"/>
      <point x="170" y="584" type="line"/>
      <point x="55" y="584" type="line"/>
    </contour>
  </outline>
</glyph>
<glyph name="nun-hb" format="2">
  <advance width="353"/>
  <unicode hex="05E0"/>
  <anchor x="162" y="0" name="bottom"/>
  <anchor x="21" y="0" name="bottomleft"/>
  <anchor x="120" y="296" name="center"/>
  <anchor x="151" y="528" name="top"/>
  <anchor x="72" y="528" name="topleft"/>
  <outline>
    <contour>
      <point x="236" y="0" type="line"/>
      <point x="268" y="0" type="line"/>
      <point x="268" y="479" type="line" smooth="yes"/>
      <point x="268" y="548"/>
      <point x="230" y="584"/>
      <point x="176" y="584" type="curve" smooth="yes"/>
      <point x="96" y="584" type="line"/>
      <point x="91" y="557" type="line"/>
      <point x="171" y="557" type="line" smooth="yes"/>
      <point x="211" y="557"/>
      <point x="236" y="529"/>
      <point x="236" y="476" type="curve" smooth="yes"/>
    </contour>
    <contour>
      <point x="55" y="0" type="line"/>
      <point x="251" y="0" type="line"/>
      <point x="251" y="27" type="line"/>
      <point x="55" y="27" type="line"/>
    </contour>
  </outline>
</glyph>
<glyph name="samekh-hb" format="2">
  <advance width="607"/>
  <unicode hex="05E1"/>
  <anchor x="311" y="0" name="bottom"/>
  <anchor x="67" y="0" name="bottomleft"/>
  <anchor x="310" y="296" name="center"/>
  <anchor x="315" y="528" name="top"/>
  <anchor x="23" y="528" name="topleft"/>
  <outline>
    <contour>
      <point x="310" y="-10" type="curve" smooth="yes"/>
      <point x="472" y="-10"/>
      <point x="547" y="107"/>
      <point x="547" y="331" type="curve" smooth="yes"/>
      <point x="547" y="497"/>
      <point x="489" y="584"/>
      <point x="359" y="584" type="curve" smooth="yes"/>
      <point x="55" y="584" type="line"/>
      <point x="50" y="557" type="line"/>
      <point x="355" y="557" type="line" smooth="yes"/>
      <point x="467" y="557"/>
      <point x="515" y="478"/>
      <point x="515" y="328" type="curve" smooth="yes"/>
      <point x="515" y="122"/>
      <point x="451" y="15"/>
      <point x="310" y="15" type="curve" smooth="yes"/>
      <point x="180" y="15"/>
      <point x="122" y="104"/>
      <point x="122" y="295" type="curve" smooth="yes"/>
      <point x="122" y="386"/>
      <point x="147" y="481"/>
      <point x="182" y="552" type="curve"/>
      <point x="199" y="572" type="line"/>
      <point x="153" y="562" type="line"/>
      <point x="153" y="552" type="line"/>
      <point x="118" y="487"/>
      <point x="90" y="397"/>
      <point x="90" y="308" type="curve"/>
      <point x="90" y="295" type="line" smooth="yes"/>
      <point x="90" y="88"/>
      <point x="159" y="-10"/>
    </contour>
  </outline>
</glyph>
<glyph name="ayin-hb" format="2">
  <advance width="556"/>
  <unicode hex="05E2"/>
  <anchor x="271" y="0" name="bottom"/>
  <anchor x="7" y="0" name="bottomleft"/>
  <anchor x="308" y="316" name="center"/>
  <anchor x="281" y="528" name="top"/>
  <anchor x="42" y="528" name="topleft"/>
  <outline>
    <contour>
      <point x="46" y="-33" type="line"/>
      <point x="213" y="10" type="line" smooth="yes"/>
      <point x="373" y="51"/>
      <point x="475" y="109"/>
      <point x="489" y="456" type="curve" smooth="yes"/>
      <point x="494" y="584" type="line"/>
      <point x="462" y="584" type="line"/>
      <point x="456" y="452" type="line" smooth="yes"/>
      <point x="441" y="127"/>
      <point x="352" y="74"/>
      <point x="211" y="37" type="curve" smooth="yes"/>
      <point x="45" y="-6" type="line"/>
    </contour>
    <contour>
      <point x="218" y="27" type="line"/>
      <point x="232" y="27" type="line"/>
      <point x="236" y="58"/>
      <point x="235" y="83"/>
      <point x="230" y="102" type="curve"/>
      <point x="100" y="587" type="line"/>
      <point x="70" y="581" type="line"/>
    </contour>
  </outline>
</glyph>
<glyph name="finalpe-hb" format="2">
  <advance width="587"/>
  <unicode hex="05E3"/>
  <anchor x="331" y="220" name="bottom"/>
  <anchor x="20" y="0" name="bottomleft"/>
  <anchor x="332" y="269" name="center"/>
  <anchor x="232" y="528" name="top"/>
  <anchor x="20" y="528" name="topleft"/>
  <outline>
    <contour>
      <point x="472" y="-198" type="line"/>
      <point x="504" y="-195" type="line"/>
      <point x="504" y="297" type="line" smooth="yes"/>
      <point x="504" y="482"/>
      <point x="415" y="594"/>
      <point x="263" y="594" type="curve" smooth="yes"/>
      <point x="134" y="594"/>
      <point x="56" y="513"/>
      <point x="56" y="399" type="curve" smooth="yes"/>
      <point x="56" y="303"/>
      <point x="101" y="234"/>
      <point x="198" y="222" type="curve" smooth="yes"/>
      <point x="214" y="220"/>
      <point x="222" y="220"/>
      <point x="229" y="220" type="curve"/>
      <point x="230" y="248" type="line"/>
      <point x="224" y="248"/>
      <point x="217" y="249"/>
      <point x="207" y="250" type="curve" smooth="yes"/>
      <point x="125" y="258"/>
      <point x="90" y="320"/>
      <point x="90" y="399" type="curve" smooth="yes"/>
      <point x="90" y="497"/>
      <point x="154" y="567"/>
      <point x="263" y="567" type="curve" smooth="yes"/>
      <point x="394" y="567"/>
      <point x="472" y="466"/>
      <point x="472" y="297" type="curve" smooth="yes"/>
    </contour>
  </outline>
</glyph>
<glyph name="pe-hb" format="2">
  <advance width="574"/>
  <unicode hex="05E4"/>
  <anchor x="258" y="0" name="bottom"/>
  <anchor x="60" y="0" name="bottomleft"/>
  <anchor x="337" y="270" name="center"/>
  <anchor x="247" y="528" name="top"/>
  <anchor x="60" y="528" name="topleft"/>
  <outline>
    <contour>
      <point x="82" y="0" type="line"/>
      <point x="236" y="0" type="line" smooth="yes"/>
      <point x="409" y="0"/>
      <point x="514" y="122"/>
      <point x="514" y="297" type="curve" smooth="yes"/>
      <point x="514" y="482"/>
      <point x="427" y="594"/>
      <point x="275" y="594" type="curve" smooth="yes"/>
      <point x="146" y="594"/>
      <point x="66" y="513"/>
      <point x="66" y="399" type="curve" smooth="yes"/>
      <point x="66" y="303"/>
      <point x="111" y="234"/>
      <point x="208" y="222" type="curve" smooth="yes"/>
      <point x="224" y="220"/>
      <point x="232" y="220"/>
      <point x="239" y="220" type="curve"/>
      <point x="240" y="248" type="line"/>
      <point x="234" y="248"/>
      <point x="227" y="249"/>
      <point x="217" y="250" type="curve" smooth="yes"/>
      <point x="135" y="258"/>
      <point x="100" y="320"/>
      <point x="100" y="399" type="curve" smooth="yes"/>
      <point x="100" y="497"/>
      <point x="166" y="567"/>
      <point x="275" y="567" type="curve" smooth="yes"/>
      <point x="406" y="567"/>
      <point x="480" y="466"/>
      <point x="480" y="297" type="curve" smooth="yes"/>
      <point x="480" y="138"/>
      <point x="388" y="27"/>
      <point x="236" y="27" type="curve" smooth="yes"/>
      <point x="82" y="27" type="line"/>
    </contour>
  </outline>
</glyph>
<glyph name="finaltsadi-hb" format="2">
  <advance width="471"/>
  <unicode hex="05E5"/>
  <anchor x="-7" y="0" name="bottomleft"/>
  <anchor x="210" y="424" name="center"/>
  <anchor x="203" y="528" name="top"/>
  <anchor x="-7" y="528" name="topleft"/>
  <outline>
    <contour>
      <point x="311" y="-200" type="line"/>
      <point x="348" y="-195" type="line"/>
      <point x="310" y="-40" type="line"/>
      <point x="274" y="108"/>
      <point x="226" y="244"/>
      <point x="174" y="368" type="curve" smooth="yes"/>
      <point x="139" y="451"/>
      <point x="96" y="547"/>
      <point x="74" y="584" type="curve"/>
      <point x="37" y="584" type="line"/>
      <point x="64" y="538"/>
      <point x="104" y="452"/>
      <point x="140" y="364" type="curve" smooth="yes"/>
      <point x="190" y="242"/>
      <point x="237" y="109"/>
      <point x="273" y="-40" type="curve"/>
    </contour>
    <contour>
      <point x="225" y="217" type="line"/>
      <point x="356" y="270"/>
      <point x="393" y="429"/>
      <point x="401" y="496" type="curve" smooth="yes"/>
      <point x="411" y="584" type="line"/>
      <point x="379" y="584" type="line"/>
      <point x="369" y="504" type="line" smooth="yes"/>
      <point x="361" y="440"/>
      <point x="333" y="289"/>
      <point x="216" y="242" type="curve"/>
    </contour>
  </outline>
</glyph>
<glyph name="tsadi-hb" format="2">
  <advance width="520"/>
  <unicode hex="05E6"/>
  <anchor x="232" y="0" name="bottom"/>
  <anchor x="18" y="0" name="bottomleft"/>
  <anchor x="161" y="166" name="center"/>
  <anchor x="272" y="528" name="top"/>
  <anchor x="48" y="528" name="topleft"/>
  <outline>
    <contour>
      <point x="425" y="8" type="line"/>
      <point x="448" y="27" type="line"/>
      <point x="311" y="245" type="line"/>
      <point x="99" y="584" type="line"/>
      <point x="62" y="584" type="line"/>
    </contour>
    <contour>
      <point x="45" y="0" type="line"/>
      <point x="442" y="0" type="line"/>
      <point x="448" y="27" type="line"/>
      <point x="431" y="27" type="line"/>
      <point x="45" y="27" type="line"/>
    </contour>
    <contour>
      <point x="296" y="228" type="line"/>
      <point x="407" y="270"/>
      <point x="444" y="429"/>
      <point x="451" y="496" type="curve" smooth="yes"/>
      <point x="460" y="584" type="line"/>
      <point x="428" y="584" type="line"/>
      <point x="419" y="504" type="line" smooth="yes"/>
      <point x="412" y="440"/>
      <point x="383" y="292"/>
      <point x="286" y="255" type="curve"/>
    </contour>
  </outline>
</glyph>
<glyph name="qof-hb" format="2">
  <advance width="600"/>
  <unicode hex="05E7"/>
  <anchor x="353" y="0" name="bottom"/>
  <anchor x="30" y="0" name="bottomleft"/>
  <anchor x="260" y="296" name="center"/>
  <anchor x="296" y="528" name="top"/>
  <anchor x="70" y="528" name="topleft"/>
  <outline>
    <contour>
      <point x="338" y="0" type="line"/>
      <point x="370" y="0" type="line"/>
      <point x="550" y="557" type="line"/>
      <point x="558" y="584" type="line"/>
      <point x="87" y="584" type="line"/>
      <point x="82" y="557" type="line"/>
      <point x="518" y="557" type="line"/>
    </contour>
    <contour>
      <point x="117" y="-198" type="line"/>
      <point x="149" y="-195" type="line"/>
      <point x="149" y="400" type="line"/>
      <point x="117" y="395" type="line"/>
    </contour>
  </outline>
</glyph>
<glyph name="resh-hb" format="2">
  <advance width="505"/>
  <unicode hex="05E8"/>
  <anchor x="402" y="0" name="bottom"/>
  <anchor x="196" y="0" name="bottomleft"/>
  <anchor x="196" y="296" name="center"/>
  <anchor x="186" y="528" name="top"/>
  <anchor x="3" y="528" name="topleft"/>
  <outline>
    <contour>
      <point x="386" y="0" type="line"/>
      <point x="418" y="0" type="line"/>
      <point x="418" y="419" type="line" smooth="yes"/>
      <point x="418" y="527"/>
      <point x="361" y="584"/>
      <point x="255" y="584" type="curve" smooth="yes"/>
      <point x="48" y="584" type="line"/>
      <point x="43" y="557" type="line"/>
      <point x="250" y="557" type="line" smooth="yes"/>
      <point x="343" y="557"/>
      <point x="386" y="511"/>
      <point x="386" y="416" type="curve" smooth="yes"/>
    </contour>
  </outline>
</glyph>
<glyph name="shin-hb" format="2">
  <advance width="674"/>
  <unicode hex="05E9"/>
  <anchor x="337" y="0" name="bottom"/>
  <anchor x="121" y="0" name="bottomleft"/>
  <anchor x="425" y="213" name="center"/>
  <anchor x="336" y="528" name="top"/>
  <anchor x="88" y="528" name="topleft"/>
  <anchor x="588" y="528" name="topright"/>
  <outline>
    <contour>
      <point x="326" y="0" type="curve" smooth="yes"/>
      <point x="341" y="0" type="line" smooth="yes"/>
      <point x="512" y="0"/>
      <point x="603" y="123"/>
      <point x="603" y="331" type="curve" smooth="yes"/>
      <point x="603" y="584" type="line"/>
      <point x="571" y="584" type="line"/>
      <point x="571" y="328" type="line" smooth="yes"/>
      <point x="571" y="138"/>
      <point x="492" y="25"/>
      <point x="341" y="25" type="curve" smooth="yes"/>
      <point x="326" y="25" type="line" smooth="yes"/>
      <point x="179" y="25"/>
      <point x="102" y="138"/>
      <point x="102" y="328" type="curve"/>
      <point x="102" y="584" type="line"/>
      <point x="70" y="584" type="line"/>
      <point x="70" y="331" type="line" smooth="yes"/>
      <point x="70" y="123"/>
      <point x="159" y="0"/>
    </contour>
    <contour>
      <point x="96" y="224" type="line"/>
      <point x="249" y="220"/>
      <point x="352" y="308"/>
      <point x="352" y="461" type="curve" smooth="yes"/>
      <point x="352" y="584" type="line"/>
      <point x="320" y="584" type="line"/>
      <point x="320" y="458" type="line" smooth="yes"/>
      <point x="320" y="321"/>
      <point x="228" y="243"/>
      <point x="92" y="250" type="curve"/>
    </contour>
  </outline>
</glyph>
<glyph name="tav-hb" format="2">
  <advance width="648"/>
  <unicode hex="05EA"/>
  <anchor x="352" y="0" name="bottom"/>
  <anchor x="33" y="0" name="bottomleft"/>
  <anchor x="352" y="296" name="center"/>
  <anchor x="315" y="528" name="top"/>
  <anchor x="87" y="528" name="topleft"/>
  <outline>
    <contour>
      <point x="531" y="0" type="line"/>
      <point x="563" y="0" type="line"/>
      <point x="563" y="419" type="line" smooth="yes"/>
      <point x="563" y="527"/>
      <point x="506" y="584"/>
      <point x="400" y="584" type="curve" smooth="yes"/>
      <point x="155" y="584" type="line"/>
      <point x="155" y="557" type="line"/>
      <point x="395" y="557" type="line" smooth="yes"/>
      <point x="488" y="557"/>
      <point x="531" y="511"/>
      <point x="531" y="416" type="curve" smooth="yes"/>
    </contour>
    <contour>
      <point x="35" y="0" type="line"/>
      <point x="76" y="0" type="line" smooth="yes"/>
      <point x="147" y="0"/>
      <point x="187" y="44"/>
      <point x="187" y="120" type="curve" smooth="yes"/>
      <point x="187" y="572" type="line"/>
      <point x="155" y="572" type="line"/>
      <point x="155" y="134" type="line" smooth="yes"/>
      <point x="155" y="60"/>
      <point x="131" y="27"/>
      <point x="76" y="27" type="curve" smooth="yes"/>
      <point x="40" y="27" type="line"/>
    </contour>
    <contour>
      <point x="60" y="557" type="line"/>
      <point x="160" y="557" type="line"/>
      <point x="160" y="584" type="line"/>
      <point x="65" y="584" type="line"/>
    </contour>
  </outline>
</glyph>
<glyph name="geresh-hb" format="2">
  <advance width="149"/>
  <unicode hex="05F3"/>
  <outline>
    <contour>
      <point x="23" y="339" type="curve"/>
      <point x="46" y="339" type="line"/>
      <point x="78" y="408"/>
      <point x="102" y="493"/>
      <point x="114" y="575" type="curve"/>
      <point x="114" y="584" type="line"/>
      <point x="86" y="584" type="line"/>
      <point x="79" y="512"/>
      <point x="54" y="409"/>
    </contour>
  </outline>
</glyph>
<glyph name="gershayim-hb" format="2">
  <advance width="287"/>
  <unicode hex="05F4"/>
  <outline>
    <contour>
      <point x="23" y="339" type="curve"/>
      <point x="46" y="339" type="line"/>
      <point x="78" y="408"/>
      <point x="102" y="493"/>
      <point x="114" y="575" type="curve"/>
      <point x="114" y="584" type="line"/>
      <point x="86" y="584" type="line"/>
      <point x="79" y="512"/>
      <point x="54" y="409"/>
    </contour>
    <contour>
      <point x="163" y="339" type="curve"/>
      <point x="186" y="339" type="line"/>
      <point x="218" y="408"/>
      <point x="242" y="493"/>
      <point x="254" y="575" type="curve"/>
      <point x="254" y="584" type="line"/>
      <point x="226" y="584" type="line"/>
      <point x="219" y="512"/>
      <point x="194" y="409"/>
    </contour>
  </outline>
</glyph>
<glyph name="sheqel" format="2">
  <advance width="721"/>
  <unicode hex="20AA"/>
  <note>
sheqel
</note>
  <outline>
    <contour>
      <point x="263" y="0" type="line"/>
      <point x="476" y="0" type="line" smooth="yes"/>
      <point x="577" y="0"/>
      <point x="636" y="53"/>
      <point x="636" y="165" type="curve" smooth="yes"/>
      <point x="636" y="584" type="line"/>
      <point x="610" y="584" type="line"/>
      <point x="610" y="168" type="line" smooth="yes"/>
      <point x="610" y="66"/>
      <point x="559" y="27"/>
      <point x="471" y="27" type="curve" smooth="yes"/>
      <point x="289" y="27" type="line"/>
      <point x="289" y="434" type="line"/>
      <point x="263" y="434" type="line"/>
    </contour>
    <contour>
      <point x="90" y="0" type="line"/>
      <point x="116" y="0" type="line"/>
      <point x="116" y="557" type="line"/>
      <point x="298" y="557" type="line" smooth="yes"/>
      <point x="386" y="557"/>
      <point x="437" y="518"/>
      <point x="437" y="416" type="curve" smooth="yes"/>
      <point x="437" y="150" type="line"/>
      <point x="463" y="150" type="line"/>
      <point x="463" y="419" type="line" smooth="yes"/>
      <point x="463" y="531"/>
      <point x="404" y="584"/>
      <point x="303" y="584" type="curve" smooth="yes"/>
      <point x="90" y="584" type="line"/>
    </contour>
  </outline>
</glyph>
<glyph name="ayinaltone-hb" format="2">
  <advance width="542"/>
  <unicode hex="FB20"/>
  <note>
alternativeayin
</note>
  <anchor x="286" y="0" name="bottom"/>
  <anchor x="20" y="0" name="bottomleft"/>
  <anchor x="301" y="528" name="top"/>
  <anchor x="63" y="528" name="topleft"/>
  <outline>
    <contour>
      <point x="41" y="-1" type="line"/>
      <point x="208" y="0" type="line" smooth="yes"/>
      <point x="373" y="1"/>
      <point x="470" y="109"/>
      <point x="484" y="456" type="curve" smooth="yes"/>
      <point x="489" y="584" type="line"/>
      <point x="457" y="584" type="line"/>
      <point x="451" y="452" type="line" smooth="yes"/>
      <point x="436" y="127"/>
      <point x="351" y="28"/>
      <point x="206" y="27" type="curve" smooth="yes"/>
      <point x="40" y="26" type="line"/>
    </contour>
    <contour>
      <point x="214" y="22" type="line"/>
      <point x="228" y="22" type="line"/>
      <point x="232" y="53"/>
      <point x="230" y="83"/>
      <point x="225" y="102" type="curve"/>
      <point x="95" y="587" type="line"/>
      <point x="65" y="581" type="line"/>
    </contour>
  </outline>
</glyph>
<glyph name="widealef-hb" format="2">
  <advance width="683"/>
  <unicode hex="FB21"/>
  <note>
alefwide
</note>
  <outline>
    <contour>
      <point x="608" y="0" type="curve"/>
      <point x="645" y="0" type="line"/>
      <point x="532" y="148"/>
      <point x="388" y="307"/>
      <point x="291" y="405" type="curve" smooth="yes"/>
      <point x="193" y="504"/>
      <point x="153" y="542"/>
      <point x="110" y="584" type="curve"/>
      <point x="72" y="584" type="line"/>
      <point x="114" y="543"/>
      <point x="157" y="502"/>
      <point x="256" y="401" type="curve" smooth="yes"/>
      <point x="351" y="304"/>
      <point x="495" y="149"/>
    </contour>
    <contour>
      <point x="36" y="0" type="line"/>
      <point x="68" y="0" type="line"/>
      <point x="99" y="194" type="line" smooth="yes"/>
      <point x="116" y="303"/>
      <point x="153" y="376"/>
      <point x="239" y="424" type="curve"/>
      <point x="224" y="446" type="line"/>
      <point x="130" y="393"/>
      <point x="87" y="314"/>
      <point x="67" y="191" type="curve" smooth="yes"/>
    </contour>
    <contour>
      <point x="445" y="228" type="line"/>
      <point x="539" y="281"/>
      <point x="596" y="357"/>
      <point x="609" y="481" type="curve" smooth="yes"/>
      <point x="619" y="584" type="line"/>
      <point x="587" y="584" type="line"/>
      <point x="577" y="478" type="line" smooth="yes"/>
      <point x="565" y="368"/>
      <point x="515" y="298"/>
      <point x="430" y="250" type="curve"/>
    </contour>
  </outline>
</glyph>
<glyph name="widedalet-hb" format="2">
  <advance width="632"/>
  <unicode hex="FB22"/>
  <note>
daletwide
</note>
  <outline>
    <contour>
      <point x="471" y="0" type="line"/>
      <point x="503" y="0" type="line"/>
      <point x="503" y="509" type="line"/>
      <point x="503" y="528"/>
      <point x="505" y="548"/>
      <point x="508" y="557" type="curve"/>
      <point x="484" y="557" type="line"/>
      <point x="475" y="550"/>
      <point x="471" y="528"/>
      <point x="471" y="509" type="curve"/>
    </contour>
    <contour>
      <point x="25" y="557" type="line"/>
      <point x="593" y="557" type="line"/>
      <point x="598" y="584" type="line"/>
      <point x="25" y="584" type="line"/>
    </contour>
  </outline>
</glyph>
<glyph name="widehe-hb" format="2">
  <advance width="766"/>
  <unicode hex="FB23"/>
  <note>
hewide
</note>
  <outline>
    <contour>
      <point x="649" y="0" type="line"/>
      <point x="681" y="0" type="line"/>
      <point x="681" y="419" type="line" smooth="yes"/>
      <point x="681" y="531"/>
      <point x="622" y="584"/>
      <point x="521" y="584" type="curve" smooth="yes"/>
      <point x="50" y="584" type="line"/>
      <point x="45" y="557" type="line"/>
      <point x="516" y="557" type="line" smooth="yes"/>
      <point x="604" y="557"/>
      <point x="649" y="518"/>
      <point x="649" y="416" type="curve" smooth="yes"/>
    </contour>
    <contour>
      <point x="69" y="0" type="line"/>
      <point x="101" y="0" type="line"/>
      <point x="101" y="355" type="line"/>
      <point x="69" y="350" type="line"/>
    </contour>
  </outline>
</glyph>
<glyph name="widekaf-hb" format="2">
  <advance width="650"/>
  <unicode hex="FB24"/>
  <note>
kafwide
</note>
  <outline>
    <contour>
      <point x="32" y="0" type="line"/>
      <point x="371" y="0" type="line" smooth="yes"/>
      <point x="527" y="0"/>
      <point x="609" y="100"/>
      <point x="609" y="292" type="curve" smooth="yes"/>
      <point x="609" y="484"/>
      <point x="527" y="584"/>
      <point x="371" y="584" type="curve" smooth="yes"/>
      <point x="37" y="584" type="line"/>
      <point x="32" y="557" type="line"/>
      <point x="371" y="557" type="line" smooth="yes"/>
      <point x="505" y="557"/>
      <point x="575" y="466"/>
      <point x="575" y="292" type="curve" smooth="yes"/>
      <point x="575" y="118"/>
      <point x="505" y="27"/>
      <point x="371" y="27" type="curve" smooth="yes"/>
      <point x="32" y="27" type="line"/>
    </contour>
  </outline>
</glyph>
<glyph name="widelamed-hb" format="2">
  <advance width="601"/>
  <unicode hex="FB25"/>
  <note>
lamedwide
</note>
  <outline>
    <contour>
      <point x="345" y="0" type="line"/>
      <point x="371" y="0" type="line"/>
      <point x="561" y="557" type="line"/>
      <point x="561" y="584" type="line"/>
      <point x="36" y="584" type="line"/>
      <point x="36" y="760" type="line"/>
      <point x="10" y="755" type="line"/>
      <point x="10" y="557" type="line"/>
      <point x="535" y="557" type="line"/>
    </contour>
  </outline>
</glyph>
<glyph name="finalwidemem-hb" format="2">
  <advance width="758"/>
  <unicode hex="FB26"/>
  <note>
finalmemwide
</note>
  <outline>
    <contour>
      <point x="543" y="584" type="curve" smooth="yes"/>
      <point x="37" y="584" type="line"/>
      <point x="32" y="557" type="line"/>
      <point x="115" y="557" type="line"/>
      <point x="106" y="550"/>
      <point x="102" y="528"/>
      <point x="102" y="509" type="curve" smooth="yes"/>
      <point x="102" y="0" type="line"/>
      <point x="706" y="0" type="line"/>
      <point x="706" y="419" type="line" smooth="yes"/>
      <point x="706" y="527"/>
      <point x="649" y="584"/>
    </contour>
    <contour>
      <point x="674" y="27" type="line"/>
      <point x="134" y="27" type="line"/>
      <point x="134" y="509" type="line" smooth="yes"/>
      <point x="134" y="528"/>
      <point x="136" y="548"/>
      <point x="139" y="557" type="curve"/>
      <point x="538" y="557" type="line" smooth="yes"/>
      <point x="631" y="557"/>
      <point x="674" y="511"/>
      <point x="674" y="416" type="curve" smooth="yes"/>
    </contour>
  </outline>
</glyph>
<glyph name="wideresh-hb" format="2">
  <advance width="637"/>
  <unicode hex="FB27"/>
  <note>
reshwide
</note>
  <outline>
    <contour>
      <point x="569" y="0" type="line"/>
      <point x="601" y="0" type="line"/>
      <point x="601" y="419" type="line" smooth="yes"/>
      <point x="601" y="531"/>
      <point x="542" y="584"/>
      <point x="441" y="584" type="curve" smooth="yes"/>
      <point x="50" y="584" type="line"/>
      <point x="45" y="557" type="line"/>
      <point x="436" y="557" type="line" smooth="yes"/>
      <point x="524" y="557"/>
      <point x="569" y="518"/>
      <point x="569" y="416" type="curve" smooth="yes"/>
    </contour>
  </outline>
</glyph>
<glyph name="widetav-hb" format="2">
  <advance width="782"/>
  <unicode hex="FB28"/>
  <note>
tavwide
</note>
  <outline>
    <contour>
      <point x="736" y="0" type="line"/>
      <point x="768" y="0" type="line"/>
      <point x="768" y="419" type="line" smooth="yes"/>
      <point x="768" y="527"/>
      <point x="711" y="584"/>
      <point x="605" y="584" type="curve" smooth="yes"/>
      <point x="160" y="584" type="line"/>
      <point x="160" y="557" type="line"/>
      <point x="600" y="557" type="line" smooth="yes"/>
      <point x="693" y="557"/>
      <point x="736" y="511"/>
      <point x="736" y="416" type="curve" smooth="yes"/>
    </contour>
    <contour>
      <point x="40" y="0" type="line"/>
      <point x="81" y="0" type="line" smooth="yes"/>
      <point x="152" y="0"/>
      <point x="192" y="44"/>
      <point x="192" y="120" type="curve" smooth="yes"/>
      <point x="192" y="572" type="line"/>
      <point x="160" y="572" type="line"/>
      <point x="160" y="134" type="line" smooth="yes"/>
      <point x="160" y="60"/>
      <point x="136" y="27"/>
      <point x="81" y="27" type="curve" smooth="yes"/>
      <point x="45" y="27" type="line"/>
    </contour>
    <contour>
      <point x="70" y="557" type="line"/>
      <point x="170" y="557" type="line"/>
      <point x="170" y="584" type="line"/>
      <point x="75" y="584" type="line"/>
    </contour>
  </outline>
</glyph>
<glyph name="alternativeplus-hb" format="2">
  <advance width="570"/>
  <unicode hex="FB29"/>
  <note>
alt_plussign
</note>
  <outline>
    <contour>
      <point x="297" y="365" type="line"/>
      <point x="297" y="583" type="line"/>
      <point x="273" y="583" type="line"/>
      <point x="273" y="365" type="line"/>
      <point x="55" y="365" type="line"/>
      <point x="55" y="341" type="line"/>
      <point x="515" y="341" type="line"/>
      <point x="515" y="365" type="line"/>
    </contour>
  </outline>
</glyph>
<glyph name="aleflamed-hb" format="2">
  <advance width="569"/>
  <unicode hex="FB4F"/>
  <note>
aleflamed
</note>
  <anchor x="284.5" y="0" name="caret_1"/>
  <outline>
    <contour>
      <point x="493" y="0" type="curve"/>
      <point x="528" y="0" type="line"/>
      <point x="478" y="85"/>
      <point x="419" y="173"/>
      <point x="362" y="251" type="curve"/>
      <point x="451" y="304"/>
      <point x="502" y="379"/>
      <point x="512" y="501" type="curve" smooth="yes"/>
      <point x="519" y="584" type="line"/>
      <point x="487" y="584" type="line"/>
      <point x="480" y="498" type="line" smooth="yes"/>
      <point x="471" y="390"/>
      <point x="427" y="321"/>
      <point x="346" y="273" type="curve"/>
      <point x="310" y="323"/>
      <point x="275" y="368"/>
      <point x="245" y="405" type="curve" smooth="yes"/>
      <point x="164" y="504"/>
      <point x="131" y="542"/>
      <point x="95" y="584" type="curve"/>
      <point x="47" y="584" type="line"/>
      <point x="47" y="760" type="line"/>
      <point x="15" y="755" type="line"/>
      <point x="15" y="557" type="line"/>
      <point x="82" y="557" type="line"/>
      <point x="112" y="523"/>
      <point x="147" y="480"/>
      <point x="211" y="401" type="curve" smooth="yes"/>
      <point x="289" y="303"/>
      <point x="406" y="149"/>
    </contour>
  </outline>
</glyph>
<glyph name="hatafpatah_zerowidthjoiner_siluqleft-hb" format="2">
  <anchor x="193" y="0" name="_bottom"/>
  <outline>
    <contour>
      <point x="50" y="-107" type="line"/>
      <point x="196" y="-107" type="line"/>
      <point x="196" y="-82" type="line"/>
      <point x="50" y="-82" type="line"/>
    </contour>
    <contour>
      <point x="231" y="-211" type="line"/>
      <point x="256" y="-211" type="line"/>
      <point x="256" y="-66" type="line"/>
      <point x="231" y="-66" type="line"/>
    </contour>
    <contour>
      <point x="314" y="-116" type="curve" smooth="yes"/>
      <point x="326" y="-116"/>
      <point x="336" y="-106"/>
      <point x="336" y="-93" type="curve" smooth="yes"/>
      <point x="336" y="-81"/>
      <point x="326" y="-71"/>
      <point x="314" y="-71" type="curve" smooth="yes"/>
      <point x="301" y="-71"/>
      <point x="291" y="-81"/>
      <point x="291" y="-93" type="curve" smooth="yes"/>
      <point x="291" y="-106"/>
      <point x="301" y="-116"/>
    </contour>
    <contour>
      <point x="314" y="-206" type="curve" smooth="yes"/>
      <point x="326" y="-206"/>
      <point x="336" y="-196"/>
      <point x="336" y="-183" type="curve" smooth="yes"/>
      <point x="336" y="-171"/>
      <point x="326" y="-161"/>
      <point x="314" y="-161" type="curve" smooth="yes"/>
      <point x="301" y="-161"/>
      <point x="291" y="-171"/>
      <point x="291" y="-183" type="curve" smooth="yes"/>
      <point x="291" y="-196"/>
      <point x="301" y="-206"/>
    </contour>
  </outline>
</glyph>
<glyph name="hatafqamats_zerowidthjoiner_siluqleft-hb" format="2">
  <anchor x="197" y="0" name="_bottom"/>
  <outline>
    <contour>
      <point x="114" y="-196" type="line"/>
      <point x="139" y="-196" type="line"/>
      <point x="139" y="-106" type="line"/>
      <point x="201" y="-106" type="line"/>
      <point x="201" y="-81" type="line"/>
      <point x="53" y="-81" type="line"/>
      <point x="53" y="-106" type="line"/>
      <point x="114" y="-106" type="line"/>
    </contour>
    <contour>
      <point x="236" y="-211" type="line"/>
      <point x="261" y="-211" type="line"/>
      <point x="261" y="-66" type="line"/>
      <point x="236" y="-66" type="line"/>
    </contour>
    <contour>
      <point x="318" y="-116" type="curve" smooth="yes"/>
      <point x="330" y="-116"/>
      <point x="340" y="-106"/>
      <point x="340" y="-93" type="curve" smooth="yes"/>
      <point x="340" y="-81"/>
      <point x="330" y="-71"/>
      <point x="318" y="-71" type="curve" smooth="yes"/>
      <point x="305" y="-71"/>
      <point x="295" y="-81"/>
      <point x="295" y="-93" type="curve" smooth="yes"/>
      <point x="295" y="-106"/>
      <point x="305" y="-116"/>
    </contour>
    <contour>
      <point x="318" y="-206" type="curve" smooth="yes"/>
      <point x="330" y="-206"/>
      <point x="340" y="-196"/>
      <point x="340" y="-183" type="curve" smooth="yes"/>
      <point x="340" y="-171"/>
      <point x="330" y="-161"/>
      <point x="318" y="-161" type="curve" smooth="yes"/>
      <point x="305" y="-161"/>
      <point x="295" y="-171"/>
      <point x="295" y="-183" type="curve" smooth="yes"/>
      <point x="295" y="-196"/>
      <point x="305" y="-206"/>
    </contour>
  </outline>
</glyph>
<glyph name="hatafsegol_zerowidthjoiner_siluqleft-hb" format="2">
  <anchor x="192" y="0" name="_bottom"/>
  <outline>
    <contour>
      <point x="227" y="-211" type="line"/>
      <point x="252" y="-211" type="line"/>
      <point x="252" y="-66" type="line"/>
      <point x="227" y="-66" type="line"/>
    </contour>
    <contour>
      <point x="75" y="-116" type="curve" smooth="yes"/>
      <point x="87" y="-116"/>
      <point x="97" y="-106"/>
      <point x="97" y="-93" type="curve" smooth="yes"/>
      <point x="97" y="-81"/>
      <point x="87" y="-71"/>
      <point x="75" y="-71" type="curve" smooth="yes"/>
      <point x="62" y="-71"/>
      <point x="52" y="-81"/>
      <point x="52" y="-93" type="curve" smooth="yes"/>
      <point x="52" y="-106"/>
      <point x="62" y="-116"/>
    </contour>
    <contour>
      <point x="171" y="-116" type="curve" smooth="yes"/>
      <point x="183" y="-116"/>
      <point x="193" y="-106"/>
      <point x="193" y="-93" type="curve" smooth="yes"/>
      <point x="193" y="-81"/>
      <point x="183" y="-71"/>
      <point x="171" y="-71" type="curve" smooth="yes"/>
      <point x="158" y="-71"/>
      <point x="148" y="-81"/>
      <point x="148" y="-93" type="curve" smooth="yes"/>
      <point x="148" y="-106"/>
      <point x="158" y="-116"/>
    </contour>
    <contour>
      <point x="122" y="-206" type="curve" smooth="yes"/>
      <point x="134" y="-206"/>
      <point x="144" y="-196"/>
      <point x="144" y="-183" type="curve" smooth="yes"/>
      <point x="144" y="-171"/>
      <point x="134" y="-161"/>
      <point x="122" y="-161" type="curve" smooth="yes"/>
      <point x="109" y="-161"/>
      <point x="99" y="-171"/>
      <point x="99" y="-183" type="curve" smooth="yes"/>
      <point x="99" y="-196"/>
      <point x="109" y="-206"/>
    </contour>
    <contour>
      <point x="310" y="-116" type="curve" smooth="yes"/>
      <point x="322" y="-116"/>
      <point x="332" y="-106"/>
      <point x="332" y="-93" type="curve" smooth="yes"/>
      <point x="332" y="-81"/>
      <point x="322" y="-71"/>
      <point x="310" y="-71" type="curve" smooth="yes"/>
      <point x="297" y="-71"/>
      <point x="287" y="-81"/>
      <point x="287" y="-93" type="curve" smooth="yes"/>
      <point x="287" y="-106"/>
      <point x="297" y="-116"/>
    </contour>
    <contour>
      <point x="310" y="-206" type="curve" smooth="yes"/>
      <point x="322" y="-206"/>
      <point x="332" y="-196"/>
      <point x="332" y="-183" type="curve" smooth="yes"/>
      <point x="332" y="-171"/>
      <point x="322" y="-161"/>
      <point x="310" y="-161" type="curve" smooth="yes"/>
      <point x="297" y="-161"/>
      <point x="287" y="-171"/>
      <point x="287" y="-183" type="curve" smooth="yes"/>
      <point x="287" y="-196"/>
      <point x="297" y="-206"/>
    </contour>
  </outline>
</glyph>
